<svg width="24.000000" height="24.000000" viewBox="0 0 24 24" fill="none" xmlns="http://www.w3.org/2000/svg" xmlns:xlink="http://www.w3.org/1999/xlink">
	<desc>
			Created with Pixso.
	</desc>
	<defs>
		<clipPath id="clip140_1702">
			<rect id="Recreational machines" width="24.000000" height="24.000000" fill="white" fill-opacity="0"/>
		</clipPath>
	</defs>
	<g clip-path="url(#clip140_1702)">
		<path id="path" d="M22 14L14 14L14 22L22 22L22 14Z" fill="#000000" fill-opacity="0" fill-rule="nonzero"/>
		<path id="path" d="M14 14L14 22L22 22L22 14L14 14Z" stroke="#A4AED2" stroke-opacity="1.000000" stroke-width="1.500000" stroke-linejoin="round"/>
		<path id="path" d="M6.5 2L11 10L2 10L6.5 2Z" fill="#000000" fill-opacity="0" fill-rule="nonzero"/>
		<path id="path" d="M11 10L2 10L6.5 2L11 10Z" stroke="#A4AED2" stroke-opacity="1.000000" stroke-width="1.500000" stroke-linejoin="round"/>
		<path id="path" d="M18 10C20.2 10 22 8.2 22 6C22 3.79 20.2 2 18 2C15.79 2 14 3.79 14 6C14 8.2 15.79 10 18 10Z" fill="#000000" fill-opacity="0" fill-rule="nonzero"/>
		<path id="path" d="M22 6C22 3.79 20.2 2 18 2C15.79 2 14 3.79 14 6C14 8.2 15.79 10 18 10C20.2 10 22 8.2 22 6Z" stroke="#A4AED2" stroke-opacity="1.000000" stroke-width="1.500000" stroke-linejoin="round"/>
		<path id="path" d="M1.49 14.53L1.46 14.53C1.17 14.23 1.17 13.76 1.46 13.46C1.76 13.17 2.23 13.17 2.53 13.46L2.53 13.49L1.49 14.53ZM10.5 21.46L10.53 21.46C10.82 21.76 10.82 22.23 10.53 22.53C10.23 22.82 9.76 22.82 9.46 22.53L9.46 22.5L10.5 21.46Z" fill="#000000" fill-opacity="0" fill-rule="nonzero"/>
		<path id="path" d="M2 14L10 22" stroke="#A4AED2" stroke-opacity="1.000000" stroke-width="1.500000" stroke-linejoin="round" stroke-linecap="round"/>
		<path id="path" d="M2.53 22.5L2.53 22.53C2.23 22.82 1.76 22.82 1.46 22.53C1.17 22.23 1.17 21.76 1.46 21.46L1.49 21.46L2.53 22.5ZM9.46 13.49L9.46 13.46C9.76 13.17 10.23 13.17 10.53 13.46C10.82 13.76 10.82 14.23 10.53 14.53L10.5 14.53L9.46 13.49Z" fill="#000000" fill-opacity="0" fill-rule="nonzero"/>
		<path id="path" d="M2 22L10 14" stroke="#A4AED2" stroke-opacity="1.000000" stroke-width="1.500000" stroke-linejoin="round" stroke-linecap="round"/>
	</g>
</svg>
